<?xml version="1.0" encoding="utf-8"?>
<!-- Generator: Adobe Illustrator 22.0.1, SVG Export Plug-In . SVG Version: 6.00 Build 0)  -->
<svg version="1.1" id="svg" xmlns="http://www.w3.org/2000/svg" xmlns:xlink="http://www.w3.org/1999/xlink" x="0px" y="0px"
	 viewBox="0 0 400 738" style="enable-background:new 0 0 400 738;" xml:space="preserve">
<style type="text/css">
	.st0{fill:#3444B4;}
</style>
<g id="svgg">
	<path id="path3" class="st0" d="M191.9,19.4c-3.2,0.5-4.2,1.8-5.1,3c-0.5,0.7-0.8,4.5-0.8,12.9c0,13.2-0.2,14-3.2,13.8
		c-1-0.1-4.2,0.9-4.4,1.7c-0.1,0.5-2.2,9.3-2.9,9.7c-1.1,0.8-134.9,24.2-135.2,24.2c-0.3,0-0.4,3-0.3,9.6l0.1,9.6
		c0,0-11.2,0.9-12.2,0.9c0,1.3,0,0-0.1,9.9l-0.1,10.8c0,0-8.3,1.6-10.2,1.9c0,4.5,0-1.5,0,23v21.8c0,0,8.5,1.3,9.4,1.5
		c1-0.1,1.5,520.4,0.5,520.8c0,0.3,0,0.7-0.1,1.4c0.1,0.7-3.2,4.9-5.9,6.7c-2.2,0.9-1.9,6-1.9,6c0,0.5-1.4,12.1-1.3,13.8l0.2,3.1
		h182.7h182.7l0.1-6.7c0.2-12.6-0.1-14-3.8-16.6c-0.7-0.5-7.2-6.2-7.6-8c-0.1-0.4-0.1-0.8-0.1-1.1c-0.6-1.4,1-514.8,0.6-515.3
		c0.4-1.4,7.8-5.5,8.3-5.5c2.1,0,2,0.4,2-22.4c0-23.2,0-18,0-22.3c-0.9,0.1-6.9-1.4-9-1.8c-2.6-1-2.6,0.3-2.6-11v-10.2l-11.8-1
		c0,0-0.7-16-0.8-17.8c-1.7-0.2-134.6-25.7-134.6-26.9c0-0.2-1.8-7.6-2-7.7s-0.1-0.7-0.4-1c-0.4-0.4-0.2-0.3-1.2-0.5
		c-0.8-0.1-3.2-0.8-4.6-1.2c-1-0.5-1.3-2.6-2.1-12.9c-0.6-8.8-0.6-11.5-1-13.7c-0.9-1.4-2.1-2.1-4.7-2.7 M208.6,34.5v12.3h-17.2
		c0,0,0-4.6,0-13.4v-9.6h8.6h8.6V34.5 M365.3,148.4l0.1,18.4H200.2H35v-18.2c0-10,0.1-18.4,0.3-18.5c0.1-0.1,74.4-0.2,165.1-0.2
		l164.8,0.1L365.3,148.4 M42.3,148.5l0.1,12.3l158.5,0.1l158.5,0.1v-12.4v-12.4H200.8H42.2L42.3,148.5 M91.5,186.3l-0.2,48.1H64.6
		l-0.2-48.1 M127.2,209.4l0,25H99.8l0-24.8c0-13.1,0.2-23.4,0.2-23.4h27.2L127.2,209.4 M162.4,234.4h-27.2l0-48.1h27.2 M265.7,234
		l-26.5-0.1l-0.1-48.1c0,0-25.9,0,13.7,0H266 M300.9,234h-26.3l-0.3-48.1c0,0,3.7-0.1,13.6,0h13.3 M336.9,210.1L337,234h-13.3
		c-10.5,0-12.8,0-13.3,0c0,0-0.1,0-0.1-0.1l0-48.1c0,0,0,0.1,13.1,0h13.4L336.9,210.1 M204.1,689.4h-6.8l0.5-503.2h6.6 M91.8,288.9
		H64.4c0,0,0-48.1,0.1-48.3h27.3 M127,288.9H99.8l0-48.3h13.7H127 M162.7,240.6l0,48.3h-26.9l-0.2-48.3c0,0,6.2,0,13.6,0
		 M266.6,240.6v48.3h-28.4v-48.3 M300.8,288.9h-26.6l0.3-48.3h26.7 M336.8,240.6l-0.3,48.3h-26.3v-48.3 M336.8,423.2l-48.2,0.1
		c-26.5,0.1-50-0.1-50-0.1v-56.6c0-31,0.3-56.6,0.3-56.6l97.9-0.1 M156.5,366.7l-0.1,50.5h-43.2H70l-0.1-50.5l-0.1-50.5h43.4h43.4
		L156.5,366.7 M245,417l42.5-0.1l42.5-0.1l0.2-100.6H245 M162.7,557.4c0,0-1.5,0-49.4,0H64.6v-56.8v-56.8h49c44.3,0,49.2,0,49.2,0
		 M162.7,444.4 M336.8,500.6v56.6l-97.7-0.2l-0.1-113.1l97.7,0.1V500.6 M245.4,500.4v50.2h42.8H331v-50.2v-50.2h-42.8h-42.8V500.4
		 M71,500.6v50h43h43v-50v-50h-43H71V500.6 M163,691c0,0-5.2,0-49.5,0H64.4l0.1-56.5c0.1-31.1,0.1-56.5,0.1-56.6
		c0-0.1,22-0.1,49-0.1H163 M337.2,634.6v56.2l-49.3,0.1l-49.3,0.1v-56.1c0-30.9,0.3-56.4,0.3-56.4l98.3-0.1V634.6 M71.2,584.6
		c-0.1,0.3-0.1,23.3-0.1,50.6l0.1,49.6l42.3,0.1l42.3,0.1v-50.2v-50.2h-42.2 M245.4,634.8V685h42.8H331v-50.2v-50.2h-42.8h-42.8
		V634.8"/>
</g>
</svg>
